<?xml version="1.0" encoding="UTF-8"?>
<!DOCTYPE svg PUBLIC "-//W3C//DTD SVG 1.1//EN" "http://www.w3.org/Graphics/SVG/1.1/DTD/svg11.dtd">
<svg xmlns="http://www.w3.org/2000/svg" version="1.1" width="128px" height="128px" style="shape-rendering:geometricPrecision; text-rendering:geometricPrecision; image-rendering:optimizeQuality; fill-rule:evenodd; clip-rule:evenodd" xmlns:xlink="http://www.w3.org/1999/xlink">
<g><path style="opacity:0.86" fill="#fefffe" d="M 16.5,28.5 C 37.1694,28.3334 57.836,28.5 78.5,29C 86.2185,32.2651 89.3851,38.0984 88,46.5C 94.7456,41.5438 101.579,36.7104 108.5,32C 112.793,30.7984 116.293,31.9651 119,35.5C 119.667,54.1667 119.667,72.8333 119,91.5C 116.293,95.0349 112.793,96.2016 108.5,95C 101.667,90.1667 94.8333,85.3333 88,80.5C 89.3851,88.9016 86.2185,94.7349 78.5,98C 57.8333,98.6667 37.1667,98.6667 16.5,98C 12.7251,96.5579 9.89172,94.0579 8,90.5C 7.33333,72.5 7.33333,54.5 8,36.5C 10.0738,32.9231 12.9072,30.2565 16.5,28.5 Z M 19.5,34.5 C 39.2344,34.0366 58.901,34.5366 78.5,36C 79.7014,36.9025 80.5348,38.0692 81,39.5C 81.9703,56.2583 81.6369,72.925 80,89.5C 78.8289,90.8932 77.3289,91.7265 75.5,92C 55.7684,92.9631 36.1017,92.6298 16.5,91C 15.2986,90.0975 14.4652,88.9308 14,87.5C 13.3333,71.5 13.3333,55.5 14,39.5C 15.1065,36.887 16.9399,35.2203 19.5,34.5 Z M 109.5,38.5 C 110.833,38.5 112.167,38.5 113.5,38.5C 113.5,55.1667 113.5,71.8333 113.5,88.5C 112.127,88.6567 110.793,88.49 109.5,88C 102.422,82.7108 95.255,77.5442 88,72.5C 87.3333,66.5 87.3333,60.5 88,54.5C 95.3499,49.3033 102.517,43.97 109.5,38.5 Z"/></g>
</svg>
