<?xml version="1.0" encoding="UTF-8"?>
<!DOCTYPE svg PUBLIC "-//W3C//DTD SVG 1.1//EN" "http://www.w3.org/Graphics/SVG/1.1/DTD/svg11.dtd">
<svg xmlns="http://www.w3.org/2000/svg" version="1.1" width="512px" height="512px" style="shape-rendering:geometricPrecision; text-rendering:geometricPrecision; image-rendering:optimizeQuality; fill-rule:evenodd; clip-rule:evenodd" xmlns:xlink="http://www.w3.org/1999/xlink">
<g><path style="opacity:0.988" fill="#0a2a74" d="M 511.5,158.5 C 511.5,162.167 511.5,165.833 511.5,169.5C 509.685,173.479 506.685,176.312 502.5,178C 490.171,178.5 477.838,178.667 465.5,178.5C 465.333,216.835 465.5,255.168 466,293.5C 473.832,303.325 474.498,313.659 468,324.5C 434.5,358 401,391.5 367.5,425C 365.33,426.586 362.996,427.92 360.5,429C 325.546,430.154 290.546,430.654 255.5,430.5C 220.454,430.654 185.454,430.154 150.5,429C 148.5,428 146.5,427 144.5,426C 110.667,392.167 76.8333,358.333 43,324.5C 36.4974,313.697 37.1641,303.364 45,293.5C 45.5,255.168 45.6667,216.835 45.5,178.5C 33.1622,178.667 20.8288,178.5 8.5,178C 4.31481,176.312 1.31481,173.479 -0.5,169.5C -0.5,165.833 -0.5,162.167 -0.5,158.5C 14.4152,137.069 29.5819,115.736 45,94.5C 50.3936,81.1463 59.5603,77.6463 72.5,84C 103.984,113.317 135.318,142.817 166.5,172.5C 170.067,169.921 174.067,168.421 178.5,168C 229.833,167.333 281.167,167.333 332.5,168C 336.933,168.421 340.933,169.921 344.5,172.5C 375.682,142.817 407.016,113.317 438.5,84C 447.533,78.6507 455.699,79.8174 463,87.5C 464,89.8333 465,92.1667 466,94.5C 481.418,115.736 496.585,137.069 511.5,158.5 Z"/></g>
<g><path style="opacity:1" fill="#d16a5c" d="M 65.5,106.5 C 94.5579,133.039 123.225,160.039 151.5,187.5C 123.18,216.32 94.6805,244.986 66,273.5C 65.5,217.834 65.3333,162.168 65.5,106.5 Z"/></g>
<g><path style="opacity:1" fill="#f9ddbd" d="M 444.5,106.5 C 445.665,161.998 445.832,217.665 445,273.5C 416.32,244.986 387.82,216.32 359.5,187.5C 387.674,160.262 416.008,133.262 444.5,106.5 Z"/></g>
<g><path style="opacity:1" fill="#3e3765" d="M 45.5,158.5 C 45.5,158.167 45.5,157.833 45.5,157.5C 45.8266,148.318 45.4933,139.318 44.5,130.5C 44.7828,129.711 45.2828,129.044 46,128.5C 46.8249,138.675 46.6583,148.675 45.5,158.5 Z"/></g>
<g><path style="opacity:1" fill="#585875" d="M 466.5,130.5 C 465.507,139.318 465.173,148.318 465.5,157.5C 465.5,157.833 465.5,158.167 465.5,158.5C 464.342,148.675 464.175,138.675 465,128.5C 465.717,129.044 466.217,129.711 466.5,130.5 Z"/></g>
<g><path style="opacity:1" fill="#b35248" d="M 44.5,130.5 C 45.4933,139.318 45.8266,148.318 45.5,157.5C 38.9779,157.823 32.6446,157.49 26.5,156.5C 32.5,147.833 38.5,139.167 44.5,130.5 Z"/></g>
<g><path style="opacity:1" fill="#f3ae73" d="M 466.5,130.5 C 472.89,138.891 478.89,147.558 484.5,156.5C 478.355,157.49 472.022,157.823 465.5,157.5C 465.173,148.318 465.507,139.318 466.5,130.5 Z"/></g>
<g><path style="opacity:1" fill="#864853" d="M 26.5,156.5 C 32.6446,157.49 38.9779,157.823 45.5,157.5C 45.5,157.833 45.5,158.167 45.5,158.5C 38.8002,158.83 32.1335,158.497 25.5,157.5C 25.6236,156.893 25.9569,156.56 26.5,156.5 Z"/></g>
<g><path style="opacity:1" fill="#b58c72" d="M 484.5,156.5 C 485.043,156.56 485.376,156.893 485.5,157.5C 478.866,158.497 472.2,158.83 465.5,158.5C 465.5,158.167 465.5,157.833 465.5,157.5C 472.022,157.823 478.355,157.49 484.5,156.5 Z"/></g>
<g><path style="opacity:1" fill="#d36a5c" d="M 350.5,409.5 C 330.167,379.5 309.833,349.5 289.5,319.5C 293.463,315.036 297.63,310.702 302,306.5C 307.988,295.228 306.155,285.395 296.5,277C 293.583,275.472 290.583,274.139 287.5,273C 263.832,271.942 240.165,271.276 216.5,271C 201.877,278.028 198.377,288.862 206,303.5C 211.703,309.035 217.203,314.702 222.5,320.5C 216.167,329.167 209.833,337.833 203.5,346.5C 186.071,325.946 174.738,302.279 169.5,275.5C 180.082,275.668 183.915,270.668 181,260.5C 177.508,255.725 173.008,254.391 167.5,256.5C 165.146,235.003 167.812,214.003 175.5,193.5C 176.625,191.871 177.959,190.371 179.5,189C 230.167,188.333 280.833,188.333 331.5,189C 371.333,228.833 411.167,268.667 451,308.5C 451.667,309.5 451.667,310.5 451,311.5C 418.5,344 386,376.5 353.5,409C 352.552,409.483 351.552,409.649 350.5,409.5 Z"/></g>
<g><path style="opacity:1" fill="#b55348" d="M 175.5,193.5 C 167.812,214.003 165.146,235.003 167.5,256.5C 162.338,260.376 161.171,265.376 164,271.5C 165.432,273.439 167.265,274.772 169.5,275.5C 174.738,302.279 186.071,325.946 203.5,346.5C 203.5,346.833 203.5,347.167 203.5,347.5C 189.167,368.167 174.833,388.833 160.5,409.5C 159.448,409.649 158.448,409.483 157.5,409C 124.46,376.293 91.7929,343.293 59.5,310C 97.6613,270.672 136.328,231.839 175.5,193.5 Z"/></g>
<g><path style="opacity:1" fill="#132b74" d="M 169.5,275.5 C 167.265,274.772 165.432,273.439 164,271.5C 161.171,265.376 162.338,260.376 167.5,256.5C 173.008,254.391 177.508,255.725 181,260.5C 183.915,270.668 180.082,275.668 169.5,275.5 Z"/></g>
<g><path style="opacity:1" fill="#162c74" d="M 329.5,255.5 C 341.047,255.641 344.88,260.975 341,271.5C 331.979,278.35 325.812,276.35 322.5,265.5C 323.304,261.04 325.637,257.707 329.5,255.5 Z"/></g>
<g><path style="opacity:1" fill="#0a2a75" d="M 289.5,319.5 C 282.368,326.131 275.368,332.964 268.5,340C 259.833,346 251.167,346 242.5,340C 235.965,333.297 229.298,326.797 222.5,320.5C 217.203,314.702 211.703,309.035 206,303.5C 198.377,288.862 201.877,278.028 216.5,271C 240.165,271.276 263.832,271.942 287.5,273C 290.583,274.139 293.583,275.472 296.5,277C 306.155,285.395 307.988,295.228 302,306.5C 297.63,310.702 293.463,315.036 289.5,319.5 Z"/></g>
<g><path style="opacity:1" fill="#f67a9e" d="M 222.5,290.5 C 243.141,291.708 263.808,292.541 284.5,293C 284.957,293.414 285.291,293.914 285.5,294.5C 275.833,304.833 265.833,314.833 255.5,324.5C 243.758,313.76 232.758,302.427 222.5,290.5 Z"/></g>
<g><path style="opacity:1" fill="#fcdfbd" d="M 289.5,319.5 C 309.833,349.5 330.167,379.5 350.5,409.5C 332.167,409.5 313.833,409.5 295.5,409.5C 259.439,396.805 228.772,376.139 203.5,347.5C 203.5,347.167 203.5,346.833 203.5,346.5C 209.833,337.833 216.167,329.167 222.5,320.5C 229.298,326.797 235.965,333.297 242.5,340C 251.167,346 259.833,346 268.5,340C 275.368,332.964 282.368,326.131 289.5,319.5 Z"/></g>
<g><path style="opacity:1" fill="#f6af73" d="M 203.5,347.5 C 228.772,376.139 259.439,396.805 295.5,409.5C 250.5,409.5 205.5,409.5 160.5,409.5C 174.833,388.833 189.167,368.167 203.5,347.5 Z"/></g>
</svg>
