<?xml version="1.0" encoding="UTF-8"?>
<!DOCTYPE svg PUBLIC "-//W3C//DTD SVG 1.1//EN" "http://www.w3.org/Graphics/SVG/1.1/DTD/svg11.dtd">
<svg xmlns="http://www.w3.org/2000/svg" version="1.1" width="64px" height="64px" style="shape-rendering:geometricPrecision; text-rendering:geometricPrecision; image-rendering:optimizeQuality; fill-rule:evenodd; clip-rule:evenodd" xmlns:xlink="http://www.w3.org/1999/xlink">
<g><path style="opacity:0.813" fill="#fefffe" d="M 10.5,-0.5 C 27.1667,-0.5 43.8333,-0.5 60.5,-0.5C 61.1667,0.833333 62.1667,1.83333 63.5,2.5C 63.5,19.1667 63.5,35.8333 63.5,52.5C 61.7901,54.1996 59.7901,55.5329 57.5,56.5C 56.0692,59.0387 54.4025,61.3721 52.5,63.5C 35.8333,63.5 19.1667,63.5 2.5,63.5C 1.83333,62.1667 0.833333,61.1667 -0.5,60.5C -0.5,43.8333 -0.5,27.1667 -0.5,10.5C 1.20994,8.80042 3.20994,7.46708 5.5,6.5C 6.93082,3.96126 8.59748,1.62793 10.5,-0.5 Z M 14.5,2.5 C 28.504,2.33343 42.504,2.50009 56.5,3C 57.4162,3.37424 58.2496,3.87424 59,4.5C 60.6326,19.0733 60.966,33.7399 60,48.5C 59.3848,50.1161 58.3848,51.4495 57,52.5C 56.9491,38.0985 56.2825,23.7652 55,9.5C 53.8289,8.10679 52.3289,7.27346 50.5,7C 37.1667,6.66667 23.8333,6.33333 10.5,6C 11.7305,4.59524 13.0639,3.42857 14.5,2.5 Z M 5.5,10.5 C 20.5484,10.1829 35.5484,10.5163 50.5,11.5C 51.1924,12.0253 51.6924,12.6919 52,13.5C 52.6667,21.1667 52.6667,28.8333 52,36.5C 49.1509,32.7972 45.6509,30.1305 41.5,28.5C 40.5,28.6667 39.5,28.8333 38.5,29C 33.3187,34.3484 27.9853,39.515 22.5,44.5C 15.9598,36.545 9.45985,36.545 3,44.5C 2.33333,34.5 2.33333,24.5 3,14.5C 3.66218,13.0161 4.49551,11.6828 5.5,10.5 Z M 21.5,22.5 C 25.1612,22.3501 26.1612,23.8501 24.5,27C 20.7071,27.4866 19.7071,25.9866 21.5,22.5 Z M 40.5,32.5 C 44.7372,35.2281 48.5706,38.5615 52,42.5C 56.7525,56.7301 51.9191,62.5634 37.5,60C 33.5,56 29.5,52 25.5,48C 30.7031,42.9646 35.7031,37.798 40.5,32.5 Z M 11.5,42.5 C 12.552,42.3505 13.552,42.5172 14.5,43C 20.1667,48.6667 25.8333,54.3333 31.5,60C 22.398,60.9424 13.398,60.6091 4.5,59C 2.65334,56.4209 2.15334,53.5876 3,50.5C 5.72906,47.6007 8.5624,44.934 11.5,42.5 Z"/></g>
<g><path style="opacity:0.71" fill="#fefffe" d="M 19.5,18.5 C 28.7446,17.8991 31.4113,21.7324 27.5,30C 21.648,32.9054 17.9814,31.2387 16.5,25C 16.8402,22.4887 17.8402,20.322 19.5,18.5 Z M 21.5,22.5 C 19.7071,25.9866 20.7071,27.4866 24.5,27C 26.1612,23.8501 25.1612,22.3501 21.5,22.5 Z"/></g>
</svg>
