<?xml version="1.0" encoding="UTF-8"?>
<!DOCTYPE svg PUBLIC "-//W3C//DTD SVG 1.1//EN" "http://www.w3.org/Graphics/SVG/1.1/DTD/svg11.dtd">
<svg xmlns="http://www.w3.org/2000/svg" version="1.1" width="64px" height="64px" style="shape-rendering:geometricPrecision; text-rendering:geometricPrecision; image-rendering:optimizeQuality; fill-rule:evenodd; clip-rule:evenodd" xmlns:xlink="http://www.w3.org/1999/xlink">
<g><path style="opacity:0.824" fill="#fefffe" d="M 23.5,-0.5 C 28.8333,-0.5 34.1667,-0.5 39.5,-0.5C 51.8333,3.16667 59.8333,11.1667 63.5,23.5C 63.5,28.8333 63.5,34.1667 63.5,39.5C 59.8333,51.8333 51.8333,59.8333 39.5,63.5C 34.1667,63.5 28.8333,63.5 23.5,63.5C 11.1579,59.8246 3.15795,51.8246 -0.5,39.5C -0.5,34.1667 -0.5,28.8333 -0.5,23.5C 3.16667,11.1667 11.1667,3.16667 23.5,-0.5 Z M 26.5,5.5 C 42.4443,4.2151 52.611,11.2151 57,26.5C 58.7653,42.4744 51.932,52.641 36.5,57C 20.5256,58.7653 10.359,51.932 6,36.5C 4.35294,20.4409 11.1863,10.1076 26.5,5.5 Z"/></g>
<g><path style="opacity:0.681" fill="#fefffe" d="M 29.5,12.5 C 34.1585,12.0146 35.4919,13.848 33.5,18C 28.7282,18.8104 27.3948,16.9771 29.5,12.5 Z"/></g>
<g><path style="opacity:0.859" fill="#fefffe" d="M 29.5,23.5 C 31.1439,23.2865 32.6439,23.6198 34,24.5C 34.6667,32.8333 34.6667,41.1667 34,49.5C 32.3333,50.8333 30.6667,50.8333 29,49.5C 28.1977,40.7551 28.3643,32.0884 29.5,23.5 Z"/></g>
</svg>
