<?xml version="1.0" encoding="UTF-8"?>
<!DOCTYPE svg PUBLIC "-//W3C//DTD SVG 1.1//EN" "http://www.w3.org/Graphics/SVG/1.1/DTD/svg11.dtd">
<svg xmlns="http://www.w3.org/2000/svg" version="1.1" width="64px" height="64px" style="shape-rendering:geometricPrecision; text-rendering:geometricPrecision; image-rendering:optimizeQuality; fill-rule:evenodd; clip-rule:evenodd" xmlns:xlink="http://www.w3.org/1999/xlink">
<g><path style="opacity:0.925" fill="#f2cd36" d="M 34.5,10.5 C 32.6208,11.3414 30.6208,11.6747 28.5,11.5C 23.352,3.96443 25.352,0.464425 34.5,1C 38.4581,4.2454 38.4581,7.41207 34.5,10.5 Z"/></g>
<g><path style="opacity:0.982" fill="#cf3669" d="M 34.5,10.5 C 36.7768,15.3873 38.7768,20.3873 40.5,25.5C 34.7756,24.1385 29.7756,21.4718 25.5,17.5C 26.5,15.5 27.5,13.5 28.5,11.5C 30.6208,11.6747 32.6208,11.3414 34.5,10.5 Z"/></g>
<g><path style="opacity:1" fill="#f0c539" d="M 25.5,17.5 C 29.7756,21.4718 34.7756,24.1385 40.5,25.5C 42.2038,28.2558 43.5371,31.2558 44.5,34.5C 37.9363,35.0574 31.603,33.5574 25.5,30C 23.8588,28.871 22.8588,27.371 22.5,25.5C 23.5,22.8333 24.5,20.1667 25.5,17.5 Z"/></g>
<g><path style="opacity:0.994" fill="#cf3968" d="M 22.5,25.5 C 22.8588,27.371 23.8588,28.871 25.5,30C 31.603,33.5574 37.9363,35.0574 44.5,34.5C 46.7365,38.6446 48.7365,42.978 50.5,47.5C 43.129,45.9903 35.7956,44.157 28.5,42C 24.5277,40.6806 20.8611,38.8472 17.5,36.5C 18.9302,32.6456 20.5969,28.9789 22.5,25.5 Z"/></g>
<g><path style="opacity:1" fill="#f1c937" d="M 17.5,36.5 C 20.8611,38.8472 24.5277,40.6806 28.5,42C 35.7956,44.157 43.129,45.9903 50.5,47.5C 51.7729,49.7128 52.7729,52.0462 53.5,54.5C 53.5,55.5 53.5,56.5 53.5,57.5C 41.0856,56.9726 29.0856,54.4726 17.5,50C 15.8043,48.8236 14.1376,47.657 12.5,46.5C 14.1993,43.1013 15.866,39.768 17.5,36.5 Z"/></g>
<g><path style="opacity:0.963" fill="#ce366a" d="M 12.5,46.5 C 14.1376,47.657 15.8043,48.8236 17.5,50C 29.0856,54.4726 41.0856,56.9726 53.5,57.5C 53.5,56.5 53.5,55.5 53.5,54.5C 55.1051,58.1204 53.7717,60.2871 49.5,61C 39.2179,62.5364 28.8845,62.8697 18.5,62C 14.9245,61.8097 11.7578,60.643 9,58.5C 8.33333,57.1667 8.33333,55.8333 9,54.5C 10.4538,51.9289 11.6205,49.2622 12.5,46.5 Z"/></g>
</svg>
