<?xml version="1.0" encoding="UTF-8"?>
<!DOCTYPE svg PUBLIC "-//W3C//DTD SVG 1.1//EN" "http://www.w3.org/Graphics/SVG/1.1/DTD/svg11.dtd">
<svg xmlns="http://www.w3.org/2000/svg" version="1.1" width="64px" height="64px" style="shape-rendering:geometricPrecision; text-rendering:geometricPrecision; image-rendering:optimizeQuality; fill-rule:evenodd; clip-rule:evenodd" xmlns:xlink="http://www.w3.org/1999/xlink">
<g><path style="opacity:0.959" fill="#7471bc" d="M 34.5,11.5 C 32.5,11.5 30.5,11.5 28.5,11.5C 25.0298,8.48176 24.6964,5.14843 27.5,1.5C 34.5241,-1.08771 37.6908,1.24562 37,8.5C 35.955,9.37344 35.1217,10.3734 34.5,11.5 Z"/></g>
<g><path style="opacity:0.958" fill="#52509d" d="M 28.5,11.5 C 30.5,11.5 32.5,11.5 34.5,11.5C 37.0483,15.9301 39.0483,20.5968 40.5,25.5C 34.7129,24.1092 29.7129,21.4426 25.5,17.5C 26.5,15.5 27.5,13.5 28.5,11.5 Z"/></g>
<g><path style="opacity:1" fill="#7371ba" d="M 25.5,17.5 C 29.7129,21.4426 34.7129,24.1092 40.5,25.5C 42.2038,28.2558 43.5371,31.2558 44.5,34.5C 36.2332,34.9066 28.5666,32.5733 21.5,27.5C 22.8333,24.1667 24.1667,20.8333 25.5,17.5 Z"/></g>
<g><path style="opacity:0.989" fill="#53519d" d="M 21.5,27.5 C 28.5666,32.5733 36.2332,34.9066 44.5,34.5C 46.4031,37.9789 48.0698,41.6456 49.5,45.5C 38.1334,45.6534 27.4667,42.6534 17.5,36.5C 18.5969,33.3135 19.9303,30.3135 21.5,27.5 Z"/></g>
<g><path style="opacity:1" fill="#7472bb" d="M 17.5,36.5 C 27.4667,42.6534 38.1334,45.6534 49.5,45.5C 51.0697,48.3135 52.4031,51.3135 53.5,54.5C 53.5,55.5 53.5,56.5 53.5,57.5C 41.0856,56.9726 29.0856,54.4726 17.5,50C 15.3645,49.1237 14.0312,47.6237 13.5,45.5C 14.5969,42.3135 15.9303,39.3135 17.5,36.5 Z"/></g>
<g><path style="opacity:0.966" fill="#53509c" d="M 13.5,45.5 C 14.0312,47.6237 15.3645,49.1237 17.5,50C 29.0856,54.4726 41.0856,56.9726 53.5,57.5C 53.5,56.5 53.5,55.5 53.5,54.5C 54.8866,56.4888 54.5532,58.3221 52.5,60C 38.5,63.3333 24.5,63.3333 10.5,60C 9.19551,59.196 8.52884,58.0293 8.5,56.5C 9.93926,52.629 11.6059,48.9623 13.5,45.5 Z"/></g>
</svg>
