<?xml version="1.0" encoding="UTF-8"?>
<!DOCTYPE svg PUBLIC "-//W3C//DTD SVG 1.1//EN" "http://www.w3.org/Graphics/SVG/1.1/DTD/svg11.dtd">
<svg xmlns="http://www.w3.org/2000/svg" version="1.1" width="512px" height="512px" style="shape-rendering:geometricPrecision; text-rendering:geometricPrecision; image-rendering:optimizeQuality; fill-rule:evenodd; clip-rule:evenodd" xmlns:xlink="http://www.w3.org/1999/xlink">
<g><path style="opacity:0.966" fill="#3b97d2" d="M 271.5,-0.5 C 275.5,-0.5 279.5,-0.5 283.5,-0.5C 293.278,4.72511 296.778,12.7251 294,23.5C 289.38,32.938 281.88,36.438 271.5,34C 259.211,27.4576 256.378,17.9576 263,5.5C 265.671,3.09757 268.505,1.09757 271.5,-0.5 Z"/></g>
<g><path style="opacity:0.966" fill="#f0c418" d="M 324.5,17.5 C 328.839,16.8461 332.673,17.8461 336,20.5C 357.197,47.6831 362.197,77.6831 351,110.5C 344.282,127.612 334.782,142.946 322.5,156.5C 311.825,160.419 306.991,156.752 308,145.5C 322.095,130.315 331.761,112.648 337,92.5C 341.298,69.067 335.632,48.4004 320,30.5C 318.379,24.9227 319.879,20.5894 324.5,17.5 Z"/></g>
<g><path style="opacity:0.957" fill="#955aa5" d="M 403.5,25.5 C 406.187,25.3359 408.854,25.5026 411.5,26C 413.667,26.8333 415.167,28.3333 416,30.5C 416.667,35.8333 416.667,41.1667 416,46.5C 412.671,51.6099 408.171,53.1099 402.5,51C 400.951,49.786 399.785,48.286 399,46.5C 398.333,41.1667 398.333,35.8333 399,30.5C 400.025,28.313 401.525,26.6464 403.5,25.5 Z"/></g>
<g><path style="opacity:0.971" fill="#955aa4" d="M 236.5,193.5 C 225.4,203.098 214.733,213.264 204.5,224C 193.491,226.654 189.657,222.487 193,211.5C 203.091,201.913 212.591,191.913 221.5,181.5C 238.27,166.567 253.437,150.233 267,132.5C 273.888,121.85 275.554,110.516 272,98.5C 265.75,85.249 255.916,75.749 242.5,70C 225.746,66.2508 211.412,70.5842 199.5,83C 189.61,86.4404 184.776,82.9404 185,72.5C 204.382,50.4463 227.882,44.613 255.5,55C 297.001,80.8365 303.501,113.67 275,153.5C 262.327,167.006 249.494,180.339 236.5,193.5 Z"/></g>
<g><path style="opacity:0.96" fill="#955aa5" d="M 377.5,51.5 C 383.176,51.3339 388.843,51.5006 394.5,52C 401.574,58.6783 400.907,64.345 392.5,69C 386.65,70.0116 380.984,69.5116 375.5,67.5C 372.134,63.5715 371.634,59.2381 374,54.5C 375.145,53.3636 376.312,52.3636 377.5,51.5 Z"/></g>
<g><path style="opacity:0.96" fill="#945aa5" d="M 420.5,51.5 C 426.952,51.0845 433.285,51.5845 439.5,53C 444.157,59.4033 443.157,64.7366 436.5,69C 430.719,69.9032 425.053,69.5699 419.5,68C 414.067,62.1139 414.4,56.6139 420.5,51.5 Z"/></g>
<g><path style="opacity:0.952" fill="#955ba5" d="M 403.5,68.5 C 409.204,67.4361 413.371,69.4361 416,74.5C 416.667,79.5 416.667,84.5 416,89.5C 410.785,97.09 405.118,97.4233 399,90.5C 398.333,84.8333 398.333,79.1667 399,73.5C 400.025,71.313 401.525,69.6464 403.5,68.5 Z"/></g>
<g><path style="opacity:0.981" fill="#ff5263" d="M 405.5,128.5 C 426.239,130.41 435.405,141.743 433,162.5C 427.364,177.573 416.53,183.74 400.5,181C 384.563,175.297 378.397,164.131 382,147.5C 386.188,136.463 394.022,130.129 405.5,128.5 Z"/></g>
<g><path style="opacity:0.995" fill="#d25627" d="M 221.5,181.5 C 212.591,191.913 203.091,201.913 193,211.5C 189.657,222.487 193.491,226.654 204.5,224C 214.733,213.264 225.4,203.098 236.5,193.5C 262.507,215.84 286.507,240.174 308.5,266.5C 300.926,275.579 292.759,284.245 284,292.5C 282.435,298.201 284.268,302.367 289.5,305C 291.971,305.706 294.305,305.373 296.5,304C 304.088,295.907 312.088,288.407 320.5,281.5C 336.076,300.289 348.91,320.956 359,343.5C 363.063,352.445 364.396,361.778 363,371.5C 362.208,374.106 360.708,376.106 358.5,377.5C 348.05,381.527 337.717,381.027 327.5,376C 307.213,366.689 288.213,355.355 270.5,342C 220.369,303.813 177.869,258.646 143,206.5C 135.671,194.841 129.671,182.508 125,169.5C 122.413,161.952 121.913,154.286 123.5,146.5C 126.389,140.633 131.222,137.966 138,138.5C 145.795,139.098 153.295,140.931 160.5,144C 182.501,153.99 202.834,166.49 221.5,181.5 Z"/></g>
<g><path style="opacity:0.998" fill="#efc319" d="M 123.5,146.5 C 121.913,154.286 122.413,161.952 125,169.5C 129.671,182.508 135.671,194.841 143,206.5C 177.869,258.646 220.369,303.813 270.5,342C 288.213,355.355 307.213,366.689 327.5,376C 337.717,381.027 348.05,381.527 358.5,377.5C 351.274,382.866 343.607,387.699 335.5,392C 320.685,399.655 305.685,406.822 290.5,413.5C 265.005,399.253 240.672,383.253 217.5,365.5C 200.639,351.208 184.305,336.208 168.5,320.5C 152.051,302.394 136.385,283.727 121.5,264.5C 109.816,247.8 99.1493,230.466 89.5,212.5C 98.7645,189.301 110.098,167.301 123.5,146.5 Z"/></g>
<g><path style="opacity:0.943" fill="#3a96d2" d="M 473.5,172.5 C 478.42,171.881 482.253,173.547 485,177.5C 485.667,183.167 485.667,188.833 485,194.5C 482.459,199.069 478.625,200.569 473.5,199C 471,197.833 469.167,196 468,193.5C 467.333,188.5 467.333,183.5 468,178.5C 469.36,175.977 471.193,173.977 473.5,172.5 Z"/></g>
<g><path style="opacity:0.941" fill="#3b97d2" d="M 447.5,198.5 C 453.29,198.096 458.956,198.596 464.5,200C 468.671,203.854 469.504,208.354 467,213.5C 466.097,214.701 464.931,215.535 463.5,216C 457.056,216.915 450.723,216.581 444.5,215C 439.853,208.374 440.853,202.874 447.5,198.5 Z"/></g>
<g><path style="opacity:0.945" fill="#3b96d2" d="M 511.5,203.5 C 511.5,206.5 511.5,209.5 511.5,212.5C 510.038,213.458 508.705,214.624 507.5,216C 501.5,216.667 495.5,216.667 489.5,216C 484.558,211.758 483.724,206.924 487,201.5C 488.419,200.54 489.919,199.707 491.5,199C 496.167,198.333 500.833,198.333 505.5,199C 508.146,199.804 510.146,201.304 511.5,203.5 Z"/></g>
<g><path style="opacity:0.969" fill="#fe5363" d="M 320.5,281.5 C 312.088,288.407 304.088,295.907 296.5,304C 294.305,305.373 291.971,305.706 289.5,305C 284.268,302.367 282.435,298.201 284,292.5C 292.759,284.245 300.926,275.579 308.5,266.5C 320.965,254.535 333.298,242.369 345.5,230C 356.56,221.303 368.893,214.969 382.5,211C 397.73,208.512 411.73,211.512 424.5,220C 438.483,230.648 447.65,244.482 452,261.5C 454.56,283.533 447.727,302.033 431.5,317C 420.133,319.082 415.966,314.582 419,303.5C 436.356,286.701 438.689,268.034 426,247.5C 410.439,227.232 391.605,223.399 369.5,236C 351.767,249.563 335.433,264.73 320.5,281.5 Z"/></g>
<g><path style="opacity:1" fill="#fe5463" d="M 89.5,212.5 C 99.1493,230.466 109.816,247.8 121.5,264.5C 108.568,290.896 101.568,318.896 100.5,348.5C 84.6816,330.018 70.015,310.685 56.5,290.5C 66.3464,263.946 77.3464,237.946 89.5,212.5 Z"/></g>
<g><path style="opacity:0.945" fill="#3b97d3" d="M 476.5,215.5 C 484.276,216.964 487.276,221.631 485.5,229.5C 486.268,241.568 481.101,245.235 470,240.5C 466.667,233.167 466.667,225.833 470,218.5C 472.166,217.269 474.333,216.269 476.5,215.5 Z"/></g>
<g><path style="opacity:1" fill="#b499c8" d="M 121.5,264.5 C 136.385,283.727 152.051,302.394 168.5,320.5C 167.542,320.953 166.708,321.619 166,322.5C 155.481,346.6 150.315,371.933 150.5,398.5C 132.167,383.5 115.5,366.833 100.5,348.5C 101.568,318.896 108.568,290.896 121.5,264.5 Z"/></g>
<g><path style="opacity:0.996" fill="#efc319" d="M 56.5,290.5 C 70.015,310.685 84.6816,330.018 100.5,348.5C 115.5,366.833 132.167,383.5 150.5,398.5C 165.685,412.689 182.018,425.356 199.5,436.5C 203.819,439.996 208.485,442.996 213.5,445.5C 174.579,461.588 134.912,475.921 94.5,488.5C 76.641,472.817 59.141,456.483 42,439.5C 32.968,428.973 23.8013,418.639 14.5,408.5C 26.7463,368.421 40.7463,329.087 56.5,290.5 Z"/></g>
<g><path style="opacity:0.964" fill="#945ba4" d="M 480.5,311.5 C 497.92,311.083 505.086,319.416 502,336.5C 498.541,343.109 493.041,346.776 485.5,347.5C 468.959,343.751 464.125,334.084 471,318.5C 473.529,315.115 476.696,312.782 480.5,311.5 Z"/></g>
<g><path style="opacity:1" fill="#955ba4" d="M 168.5,320.5 C 184.305,336.208 200.639,351.208 217.5,365.5C 207.586,388.156 201.586,411.822 199.5,436.5C 182.018,425.356 165.685,412.689 150.5,398.5C 150.315,371.933 155.481,346.6 166,322.5C 166.708,321.619 167.542,320.953 168.5,320.5 Z"/></g>
<g><path style="opacity:1" fill="#fe5463" d="M 217.5,365.5 C 240.672,383.253 265.005,399.253 290.5,413.5C 265.171,424.999 239.504,435.665 213.5,445.5C 208.485,442.996 203.819,439.996 199.5,436.5C 201.586,411.822 207.586,388.156 217.5,365.5 Z"/></g>
<g><path style="opacity:1" fill="#965ba3" d="M 83.5,396.5 C 93.8969,394.449 101.397,398.116 106,407.5C 107.946,423.801 100.779,431.301 84.5,430C 72.7461,424.314 69.5795,415.481 75,403.5C 77.4412,400.546 80.2745,398.213 83.5,396.5 Z"/></g>
<g><path style="opacity:1" fill="#fe5562" d="M 14.5,408.5 C 23.8013,418.639 32.968,428.973 42,439.5C 59.141,456.483 76.641,472.817 94.5,488.5C 78.2299,493.151 61.8966,497.651 45.5,502C 22.5717,506.711 7.23841,498.211 -0.5,476.5C -0.5,471.167 -0.5,465.833 -0.5,460.5C 4.06287,443.133 9.06287,425.8 14.5,408.5 Z"/></g>
</svg>
