<?xml version="1.0" encoding="UTF-8"?>
<!DOCTYPE svg PUBLIC "-//W3C//DTD SVG 1.1//EN" "http://www.w3.org/Graphics/SVG/1.1/DTD/svg11.dtd">
<svg xmlns="http://www.w3.org/2000/svg" version="1.1" width="512px" height="512px" style="shape-rendering:geometricPrecision; text-rendering:geometricPrecision; image-rendering:optimizeQuality; fill-rule:evenodd; clip-rule:evenodd" xmlns:xlink="http://www.w3.org/1999/xlink">
<g><path style="opacity:0.987" fill="#1d2e72" d="M 511.5,124.5 C 511.5,160.833 511.5,197.167 511.5,233.5C 506.039,248.804 496.039,260.304 481.5,268C 456.67,281.612 430.337,291.278 402.5,297C 382.703,301.527 362.703,304.693 342.5,306.5C 347.125,315.429 350.959,324.763 354,334.5C 364.705,383.078 349.872,421.578 309.5,450C 273.533,470.636 237.533,470.636 201.5,450C 161.128,421.578 146.295,383.078 157,334.5C 160.041,324.763 163.875,315.429 168.5,306.5C 127.064,302.974 87.0642,293.474 48.5,278C 31.0759,270.893 16.5759,260.059 5,245.5C 2.85371,241.525 1.02038,237.525 -0.5,233.5C -0.5,197.167 -0.5,160.833 -0.5,124.5C 4.34297,111.358 12.6763,100.858 24.5,93C 50.2499,77.6354 77.9166,66.9687 107.5,61C 204.458,41.2253 301.458,40.8919 398.5,60C 429.934,65.6962 459.267,76.6962 486.5,93C 498.066,101.052 506.399,111.552 511.5,124.5 Z M 241.5,158.5 C 290.582,157.923 339.248,162.09 387.5,171C 398.297,173.159 408.964,175.826 419.5,179C 365.732,192.808 311.065,199.641 255.5,199.5C 199.935,199.641 145.268,192.808 91.5,179C 140.805,166.122 190.805,159.289 241.5,158.5 Z"/></g>
<g><path style="opacity:1" fill="#bb99f3" d="M 218.5,66.5 C 279.099,64.2428 339.099,69.0762 398.5,81C 424.199,86.4535 448.532,95.4535 471.5,108C 480.13,113.293 486.63,120.46 491,129.5C 492.315,135.204 490.982,140.204 487,144.5C 477.324,155.173 465.657,162.84 452,167.5C 399.236,150.294 345.069,140.794 289.5,139C 228.526,135.776 168.193,140.442 108.5,153C 92.5069,156.581 76.8403,161.248 61.5,167C 46.742,163.527 34.242,156.027 24,144.5C 18.8908,138.291 18.2242,131.624 22,124.5C 26.8748,117.958 32.7082,112.458 39.5,108C 62.0649,95.255 86.0649,86.255 111.5,81C 147.006,73.921 182.673,69.0877 218.5,66.5 Z"/></g>
<g><path style="opacity:1" fill="#fc7c9f" d="M 132.5,209.5 C 132.5,233.167 132.5,256.833 132.5,280.5C 103.277,276.028 75.277,267.528 48.5,255C 39.1996,250.37 31.0329,244.204 24,236.5C 22.0922,233.785 20.7589,230.785 20,227.5C 19.3333,207.833 19.3333,188.167 20,168.5C 32.6986,177.935 46.5319,185.435 61.5,191C 84.5813,199.511 108.248,205.678 132.5,209.5 Z"/></g>
<g><path style="opacity:1" fill="#fc7c9f" d="M 378.5,280.5 C 378.5,256.833 378.5,233.167 378.5,209.5C 413.057,203.925 446.057,193.425 477.5,178C 482.263,175.202 486.763,172.036 491,168.5C 491.667,188.167 491.667,207.833 491,227.5C 486.666,237.838 479.499,245.671 469.5,251C 440.773,265.742 410.44,275.575 378.5,280.5 Z"/></g>
<g><path style="opacity:1" fill="#6863f6" d="M 132.5,209.5 C 214.485,222.802 296.485,222.802 378.5,209.5C 378.5,233.167 378.5,256.833 378.5,280.5C 360.386,284.389 342.052,286.556 323.5,287C 288.336,258.104 250.003,253.104 208.5,272C 200.943,276.224 193.943,281.224 187.5,287C 168.868,287.123 150.535,284.957 132.5,280.5C 132.5,256.833 132.5,233.167 132.5,209.5 Z"/></g>
<g><path style="opacity:1" fill="#fbca50" d="M 220.5,352.5 C 216.279,328.104 220.946,305.604 234.5,285C 233.906,284.536 233.239,284.369 232.5,284.5C 260.306,276.931 285.639,282.098 308.5,300C 324.538,313.908 333.871,331.408 336.5,352.5C 312.833,352.5 289.167,352.5 265.5,352.5C 265.666,344.493 265.5,336.493 265,328.5C 261.252,322.458 256.085,320.958 249.5,324C 247.951,325.214 246.785,326.714 246,328.5C 245.5,336.493 245.334,344.493 245.5,352.5C 237.167,352.5 228.833,352.5 220.5,352.5 Z"/></g>
<g><path style="opacity:1" fill="#fb8e03" d="M 232.5,284.5 C 233.239,284.369 233.906,284.536 234.5,285C 220.946,305.604 216.279,328.104 220.5,352.5C 205.167,352.5 189.833,352.5 174.5,352.5C 179.819,317.852 199.153,295.185 232.5,284.5 Z"/></g>
<g><path style="opacity:1" fill="#fb8e02" d="M 226.5,372.5 C 242.399,405.12 268.399,423.453 304.5,427.5C 294.871,435.312 283.871,440.478 271.5,443C 229.521,448.263 199.021,432.096 180,394.5C 177.221,387.386 175.388,380.053 174.5,372.5C 191.833,372.5 209.167,372.5 226.5,372.5 Z"/></g>
<g><path style="opacity:1" fill="#fbc950" d="M 226.5,372.5 C 232.833,372.5 239.167,372.5 245.5,372.5C 245.334,380.174 245.5,387.841 246,395.5C 248.604,402.72 253.437,404.886 260.5,402C 262.81,400.363 264.31,398.196 265,395.5C 265.5,387.841 265.666,380.174 265.5,372.5C 289.167,372.5 312.833,372.5 336.5,372.5C 333.794,395.592 323.128,413.925 304.5,427.5C 268.399,423.453 242.399,405.12 226.5,372.5 Z"/></g>
</svg>
