<?xml version="1.0" encoding="UTF-8"?>
<!DOCTYPE svg PUBLIC "-//W3C//DTD SVG 1.1//EN" "http://www.w3.org/Graphics/SVG/1.1/DTD/svg11.dtd">
<svg xmlns="http://www.w3.org/2000/svg" version="1.1" width="64px" height="64px" style="shape-rendering:geometricPrecision; text-rendering:geometricPrecision; image-rendering:optimizeQuality; fill-rule:evenodd; clip-rule:evenodd" xmlns:xlink="http://www.w3.org/1999/xlink">
<g><path style="opacity:0.921" fill="#fefffe" d="M 63.5,8.5 C 63.5,23.8333 63.5,39.1667 63.5,54.5C 62.3734,55.1217 61.3734,55.955 60.5,57C 41.1667,57.6667 21.8333,57.6667 2.5,57C 1.62656,55.955 0.626561,55.1217 -0.5,54.5C -0.5,39.1667 -0.5,23.8333 -0.5,8.5C 0.626561,7.87833 1.62656,7.04499 2.5,6C 21.8333,5.33333 41.1667,5.33333 60.5,6C 61.3734,7.04499 62.3734,7.87833 63.5,8.5 Z M 6.5,7.5 C 24.2358,7.04103 41.9025,7.54103 59.5,9C 60.1905,10.0674 60.6905,11.2341 61,12.5C 61.1667,18.8333 61.3333,25.1667 61.5,31.5C 61.6134,38.9081 61.1134,46.2414 60,53.5C 58.9326,54.1905 57.7659,54.6905 56.5,55C 48.1667,55.1667 39.8333,55.3333 31.5,55.5C 22.0959,55.6265 12.7626,55.1265 3.5,54C 2.80945,52.9326 2.30945,51.7659 2,50.5C 1.33333,37.8333 1.33333,25.1667 2,12.5C 2.34765,9.65762 3.84765,7.99095 6.5,7.5 Z M 9.5,14.5 C 11.5,14.5 13.5,14.5 15.5,14.5C 15.5,16.5 15.5,18.5 15.5,20.5C 13.5,20.5 11.5,20.5 9.5,20.5C 9.5,18.5 9.5,16.5 9.5,14.5 Z M 9.5,28.5 C 11.5,28.5 13.5,28.5 15.5,28.5C 15.5,30.5 15.5,32.5 15.5,34.5C 13.5,34.5 11.5,34.5 9.5,34.5C 9.5,32.5 9.5,30.5 9.5,28.5 Z M 9.5,42.5 C 11.5,42.5 13.5,42.5 15.5,42.5C 15.5,44.5 15.5,46.5 15.5,48.5C 13.5,48.5 11.5,48.5 9.5,48.5C 9.5,46.5 9.5,44.5 9.5,42.5 Z"/></g>
<g><path style="opacity:1" fill="#fefffe" d="M 7.5,12.5 C 10.8333,12.5 14.1667,12.5 17.5,12.5C 17.5,15.8333 17.5,19.1667 17.5,22.5C 14.1667,22.5 10.8333,22.5 7.5,22.5C 7.5,19.1667 7.5,15.8333 7.5,12.5 Z M 9.5,14.5 C 9.5,16.5 9.5,18.5 9.5,20.5C 11.5,20.5 13.5,20.5 15.5,20.5C 15.5,18.5 15.5,16.5 15.5,14.5C 13.5,14.5 11.5,14.5 9.5,14.5 Z"/></g>
<g><path style="opacity:1" fill="#fefffe" d="M 21.5,14.5 C 31.5222,14.1681 41.5222,14.5015 51.5,15.5C 46.5,15.8333 41.5,16.1667 36.5,16.5C 31.1194,16.4942 26.1194,15.8275 21.5,14.5 Z"/></g>
<g><path style="opacity:1" fill="#fefffe" d="M 21.5,18.5 C 32.8529,18.1678 44.1862,18.5012 55.5,19.5C 49.8333,19.8333 44.1667,20.1667 38.5,20.5C 32.4585,20.4955 26.7918,19.8288 21.5,18.5 Z"/></g>
<g><path style="opacity:1" fill="#fefffe" d="M 7.5,26.5 C 10.8333,26.5 14.1667,26.5 17.5,26.5C 17.5,29.8333 17.5,33.1667 17.5,36.5C 14.1667,36.5 10.8333,36.5 7.5,36.5C 7.5,33.1667 7.5,29.8333 7.5,26.5 Z M 9.5,28.5 C 9.5,30.5 9.5,32.5 9.5,34.5C 11.5,34.5 13.5,34.5 15.5,34.5C 15.5,32.5 15.5,30.5 15.5,28.5C 13.5,28.5 11.5,28.5 9.5,28.5 Z"/></g>
<g><path style="opacity:1" fill="#fefffe" d="M 21.5,28.5 C 31.5222,28.1681 41.5222,28.5015 51.5,29.5C 46.5,29.8333 41.5,30.1667 36.5,30.5C 31.1194,30.4942 26.1194,29.8275 21.5,28.5 Z"/></g>
<g><path style="opacity:1" fill="#fefffe" d="M 21.5,32.5 C 32.8529,32.1678 44.1862,32.5012 55.5,33.5C 49.8333,33.8333 44.1667,34.1667 38.5,34.5C 32.4585,34.4955 26.7918,33.8288 21.5,32.5 Z"/></g>
<g><path style="opacity:1" fill="#fefffe" d="M 7.5,40.5 C 10.8333,40.5 14.1667,40.5 17.5,40.5C 17.5,43.8333 17.5,47.1667 17.5,50.5C 14.1667,50.5 10.8333,50.5 7.5,50.5C 7.5,47.1667 7.5,43.8333 7.5,40.5 Z M 9.5,42.5 C 9.5,44.5 9.5,46.5 9.5,48.5C 11.5,48.5 13.5,48.5 15.5,48.5C 15.5,46.5 15.5,44.5 15.5,42.5C 13.5,42.5 11.5,42.5 9.5,42.5 Z"/></g>
<g><path style="opacity:1" fill="#fefffe" d="M 21.5,42.5 C 31.5222,42.1681 41.5222,42.5015 51.5,43.5C 46.5,43.8333 41.5,44.1667 36.5,44.5C 31.1194,44.4942 26.1194,43.8275 21.5,42.5 Z"/></g>
<g><path style="opacity:1" fill="#fefffe" d="M 21.5,46.5 C 32.8529,46.1678 44.1862,46.5012 55.5,47.5C 49.8333,47.8333 44.1667,48.1667 38.5,48.5C 32.4585,48.4955 26.7918,47.8288 21.5,46.5 Z"/></g>
</svg>
